<?xml version="1.0" encoding="UTF-8"?>
<svg width="1200" height="300" viewBox="0 0 1200 300" xmlns="http://www.w3.org/2000/svg">
  <defs>
    <linearGradient id="headerGradient" x1="0%" y1="0%" x2="100%" y2="100%">
      <stop offset="0%" stop-color="#f8bbd0"/>
      <stop offset="100%" stop-color="#e91e63"/>
    </linearGradient>
    
    <pattern id="strawberry-header-pattern" x="0" y="0" width="200" height="200" patternUnits="userSpaceOnUse">
      <!-- Strawberry 1 -->
      <g transform="translate(20, 40) scale(1.5)">
        <path d="M12,3 C10.5,3 9.5,4 9,5 L15,5 C14.5,4 13.5,3 12,3 Z" fill="#4CAF50" opacity="0.15"/>
        <path d="M16,5 L8,5 C6,5 4,6 3,7 C4,9 6,10 8,10 C8.5,10 9,9.9 9.5,9.7 C9.2,10.4 9,11.2 9,12 C9,14.8 11.2,17 14,17 C16.8,17 19,14.8 19,12 C19,11.2 18.8,10.4 18.5,9.7 C19,9.9 19.5,10 20,10 C22,10 24,9 25,7 C24,6 22,5 20,5 L16,5 Z" fill="#FFFFFF" opacity="0.15"/>
        <path d="M10,9 C10.5,10 11,10.5 12,11 C11.5,11.5 11,12 11,13 C10,12.5 9.5,12 9,11 C9.5,10 9.5,9.5 10,9 Z" fill="#FFFFFF" opacity="0.2"/>
      </g>
      <!-- Strawberry 2 -->
      <g transform="translate(120, 120) scale(2)">
        <path d="M12,3 C10.5,3 9.5,4 9,5 L15,5 C14.5,4 13.5,3 12,3 Z" fill="#4CAF50" opacity="0.15"/>
        <path d="M16,5 L8,5 C6,5 4,6 3,7 C4,9 6,10 8,10 C8.5,10 9,9.9 9.5,9.7 C9.2,10.4 9,11.2 9,12 C9,14.8 11.2,17 14,17 C16.8,17 19,14.8 19,12 C19,11.2 18.8,10.4 18.5,9.7 C19,9.9 19.5,10 20,10 C22,10 24,9 25,7 C24,6 22,5 20,5 L16,5 Z" fill="#FFFFFF" opacity="0.15"/>
        <path d="M10,9 C10.5,10 11,10.5 12,11 C11.5,11.5 11,12 11,13 C10,12.5 9.5,12 9,11 C9.5,10 9.5,9.5 10,9 Z" fill="#FFFFFF" opacity="0.2"/>
      </g>
      <!-- Strawberry 3 -->
      <g transform="translate(180, 30) scale(1.2)">
        <path d="M12,3 C10.5,3 9.5,4 9,5 L15,5 C14.5,4 13.5,3 12,3 Z" fill="#4CAF50" opacity="0.15"/>
        <path d="M16,5 L8,5 C6,5 4,6 3,7 C4,9 6,10 8,10 C8.5,10 9,9.9 9.5,9.7 C9.2,10.4 9,11.2 9,12 C9,14.8 11.2,17 14,17 C16.8,17 19,14.8 19,12 C19,11.2 18.8,10.4 18.5,9.7 C19,9.9 19.5,10 20,10 C22,10 24,9 25,7 C24,6 22,5 20,5 L16,5 Z" fill="#FFFFFF" opacity="0.15"/>
        <path d="M10,9 C10.5,10 11,10.5 12,11 C11.5,11.5 11,12 11,13 C10,12.5 9.5,12 9,11 C9.5,10 9.5,9.5 10,9 Z" fill="#FFFFFF" opacity="0.2"/>
      </g>
    </pattern>
  </defs>
  <rect width="100%" height="100%" fill="url(#headerGradient)"/>
  <rect width="100%" height="100%" fill="url(#strawberry-header-pattern)"/>
</svg>