<?xml version="1.0" encoding="UTF-8"?>
<svg width="200px" height="200px" viewBox="0 0 200 200" version="1.1" xmlns="http://www.w3.org/2000/svg">
    <g fill-rule="nonzero" fill="none">
        <path d="M100,100 C100,100 115,85 120,70 C125,55 120,45 110,40 C100,35 90,40 85,45 C80,50 80,55 80,55 C80,55 75,50 70,45 C65,40 55,35 45,40 C35,45 30,55 35,70 C40,85 55,100 55,100 C55,100 65,115 75,130 C85,145 95,155 100,155 C105,155 115,145 125,130 C135,115 145,100 145,100 C145,100 130,115 120,125 C110,135 100,140 100,140 C100,140 90,135 80,125 C70,115 55,100 55,100 L100,100 Z" fill="#F8BBD0" opacity="0.2"></path>
        <path d="M30,30 C30,30 40,20 45,10 C50,0 60,0 65,5 C70,10 70,15 70,15 C70,15 75,10 80,5 C85,0 95,0 100,10 C105,20 115,30 115,30 C115,30 105,35 100,40 C95,45 90,50 90,50 C90,50 85,45 80,40 C75,35 65,30 65,30 L30,30 Z" fill="#4CAF50" opacity="0.15" transform="translate(72.500000, 30.000000) rotate(-30.000000) translate(-72.500000, -30.000000)"></path>
        <path d="M150,50 C150,50 160,40 165,30 C170,20 180,20 185,25 C190,30 190,35 190,35 C190,35 195,30 200,25 C205,20 215,20 220,30 C225,40 235,50 235,50 C235,50 225,55 220,60 C215,65 210,70 210,70 C210,70 205,65 200,60 C195,55 185,50 185,50 L150,50 Z" fill="#4CAF50" opacity="0.15" transform="translate(192.500000, 50.000000) rotate(-170.000000) translate(-192.500000, -50.000000)"></path>
        <path d="M150,150 C150,150 165,135 170,120 C175,105 170,95 160,90 C150,85 140,90 135,95 C130,100 130,105 130,105 C130,105 125,100 120,95 C115,90 105,85 95,90 C85,95 80,105 85,120 C90,135 105,150 105,150 C105,150 115,165 125,180 C135,195 145,205 150,205 C155,205 165,195 175,180 C185,165 195,150 195,150 C195,150 180,165 170,175 C160,185 150,190 150,190 C150,190 140,185 130,175 C120,165 105,150 105,150 L150,150 Z" fill="#F8BBD0" opacity="0.2" transform="translate(150.000000, 150.000000) rotate(90.000000) translate(-150.000000, -150.000000)"></path>
    </g>
</svg>