<?xml version="1.0" encoding="UTF-8" standalone="no"?>
<svg 
   xmlns="http://www.w3.org/2000/svg"
   viewBox="0 0 512 512"
   version="1.1">
  <defs>
    <filter id="shadow" x="-20%" y="-20%" width="140%" height="140%">
      <feGaussianBlur in="SourceAlpha" stdDeviation="8"/>
      <feOffset dx="2" dy="4" result="offsetblur"/>
      <feComponentTransfer>
        <feFuncA type="linear" slope="0.4"/>
      </feComponentTransfer>
      <feMerge>
        <feMergeNode/>
        <feMergeNode in="SourceGraphic"/>
      </feMerge>
    </filter>
    <!-- Градиенты для более реалистичной клубники -->
    <linearGradient id="strawberryGradient" x1="0%" y1="0%" x2="100%" y2="100%">
      <stop offset="0%" style="stop-color:#e91e63;stop-opacity:1" />
      <stop offset="100%" style="stop-color:#c2185b;stop-opacity:1" />
    </linearGradient>
    <linearGradient id="leafGradient" x1="0%" y1="0%" x2="100%" y2="100%">
      <stop offset="0%" style="stop-color:#4CAF50;stop-opacity:1" />
      <stop offset="100%" style="stop-color:#388E3C;stop-opacity:1" />
    </linearGradient>
    <radialGradient id="shineGradient" cx="35%" cy="30%" r="60%" fx="30%" fy="30%">
      <stop offset="0%" style="stop-color:rgba(255,255,255,0.8);stop-opacity:0.8" />
      <stop offset="100%" style="stop-color:rgba(255,255,255,0);stop-opacity:0" />
    </radialGradient>
  </defs>
  <g>
    <!-- Улучшенный фон с градиентом -->
    <circle cx="256" cy="256" r="220" fill="url(#strawberryGradient)" />
    
    <!-- Основная форма клубники с гладкими изгибами -->
    <path d="M 256,180 
             C 215,180 170,210 150,260 
             C 130,310 135,360 165,400 
             C 195,440 225,450 256,450 
             C 287,450 317,440 347,400 
             C 377,360 382,310 362,260 
             C 342,210 297,180 256,180 Z" 
          fill="url(#strawberryGradient)" 
          filter="url(#shadow)" />
    
    <!-- Блик на клубнике для объема -->
    <path d="M 256,180 
             C 225,180 195,210 175,260 
             C 155,310 165,340 185,370 
             C 205,400 235,410 256,410 Z" 
          fill="url(#shineGradient)" 
          opacity="0.7" />
    
    <!-- Стебель и чашелистики -->
    <path d="M 256,180 
             C 251,170 256,160 256,150 
             C 256,140 246,130 236,135 
             C 226,140 231,160 240,170 
             C 244,174 249,180 256,180 Z" 
          fill="#43A047" 
          filter="url(#shadow)" />
    
    <!-- Красивые листья -->
    <path d="M 256,170 
             C 236,140 196,125 166,140 
             C 196,145 206,155 221,170 
             C 231,160 241,155 256,170 Z" 
          fill="url(#leafGradient)" 
          filter="url(#shadow)" />
    <path d="M 256,170 
             C 276,140 316,125 346,140 
             C 316,145 306,155 291,170 
             C 281,160 271,155 256,170 Z" 
          fill="url(#leafGradient)" 
          filter="url(#shadow)" />
    
    <!-- Дополнительный листик сверху для красоты -->
    <path d="M 256,165 
             C 251,150 236,140 226,145 
             C 236,147 244,155 246,165 
             C 249,160 252,155 256,165 Z" 
          fill="#66BB6A" 
          filter="url(#shadow)" />
    
    <!-- Улучшенные семечки с эффектом объема -->
    <!-- Левая сторона -->
    <ellipse cx="210" cy="240" rx="8" ry="7" fill="#FFF9C4" filter="url(#shadow)" />
    <ellipse cx="180" cy="270" rx="8" ry="7" fill="#FFF9C4" filter="url(#shadow)" />
    <ellipse cx="200" cy="300" rx="8" ry="7" fill="#FFF9C4" filter="url(#shadow)" />
    <ellipse cx="180" cy="330" rx="8" ry="7" fill="#FFF9C4" filter="url(#shadow)" />
    <ellipse cx="210" cy="360" rx="8" ry="7" fill="#FFF9C4" filter="url(#shadow)" />
    <ellipse cx="230" cy="390" rx="8" ry="7" fill="#FFF9C4" filter="url(#shadow)" />
    <ellipse cx="220" cy="330" rx="8" ry="7" fill="#FFF9C4" filter="url(#shadow)" />
    <ellipse cx="190" cy="360" rx="8" ry="7" fill="#FFF9C4" filter="url(#shadow)" />
    <ellipse cx="195" cy="270" rx="8" ry="7" fill="#FFF9C4" filter="url(#shadow)" />
    
    <!-- Правая сторона -->
    <ellipse cx="300" cy="240" rx="8" ry="7" fill="#FFF9C4" filter="url(#shadow)" />
    <ellipse cx="330" cy="270" rx="8" ry="7" fill="#FFF9C4" filter="url(#shadow)" />
    <ellipse cx="310" cy="300" rx="8" ry="7" fill="#FFF9C4" filter="url(#shadow)" />
    <ellipse cx="330" cy="330" rx="8" ry="7" fill="#FFF9C4" filter="url(#shadow)" />
    <ellipse cx="300" cy="360" rx="8" ry="7" fill="#FFF9C4" filter="url(#shadow)" />
    <ellipse cx="280" cy="390" rx="8" ry="7" fill="#FFF9C4" filter="url(#shadow)" />
    <ellipse cx="290" cy="330" rx="8" ry="7" fill="#FFF9C4" filter="url(#shadow)" />
    <ellipse cx="320" cy="300" rx="8" ry="7" fill="#FFF9C4" filter="url(#shadow)" />
    <ellipse cx="315" cy="360" rx="8" ry="7" fill="#FFF9C4" filter="url(#shadow)" />
  </g>
</svg>